<?xml version="1.0" standalone="no"?>
<!DOCTYPE svg PUBLIC "-//W3C//DTD SVG 20010904//EN"
 "http://www.w3.org/TR/2001/REC-SVG-20010904/DTD/svg10.dtd">
<svg version="1.0" xmlns="http://www.w3.org/2000/svg"
 width="54.000000pt" height="54.000000pt" viewBox="0 0 54.000000 54.000000"
 preserveAspectRatio="xMidYMid meet">

<g transform="translate(0.000000,54.000000) scale(0.100000,-0.100000)"
fill="#000000" stroke="none">
<path d="M139 402 c-116 -114 -139 -142 -139 -167 0 -23 19 -47 98 -127 80
-80 104 -98 128 -98 24 0 52 23 169 140 l140 140 0 106 c0 140 -4 144 -153
144 l-105 0 -138 -138z m349 -6 l3 -100 -123 -123 c-67 -68 -130 -123 -138
-123 -17 0 -190 169 -190 185 0 5 57 67 128 138 l127 128 95 -3 95 -3 3 -99z"/>
<path d="M365 458 c-27 -15 -35 -28 -35 -60 0 -27 39 -68 65 -68 26 0 65 41
65 68 0 33 -8 45 -37 61 -26 14 -33 13 -58 -1z m53 -52 c5 -24 -10 -38 -31
-30 -17 6 -23 35 -10 48 12 12 38 1 41 -18z"/>
</g>
</svg>
