<?xml version="1.0" ?><svg id="Layer_1" style="enable-background:new 0 0 32 32;" version="1.1" viewBox="0 0 32 32" xml:space="preserve" xmlns="http://www.w3.org/2000/svg" xmlns:xlink="http://www.w3.org/1999/xlink"><style type="text/css">
	.st0{fill:#222A30;}
	.st1{fill:#868687;}
	.st2{fill-rule:evenodd;clip-rule:evenodd;fill:#222A30;stroke:#222A30;stroke-width:0.776;}
	.st3{fill-rule:evenodd;clip-rule:evenodd;fill:#222A30;fill-opacity:0;stroke:#222A30;stroke-width:0.776;}
	.st4{fill:none;stroke:#222A30;stroke-width:1.5556;stroke-opacity:0.5;}
	.st5{fill:none;stroke:#222A30;stroke-width:1.5556;}
	.st6{fill:#070707;}
</style><path class="st0" d="M16,9V3.9c0-0.3-0.2-0.5-0.5-0.5H2.5C2.2,3.4,2,3.6,2,3.9v24.3c0,0.3,0.2,0.5,0.5,0.5h27.1  c0.3,0,0.5-0.2,0.5-0.5V9.5C30,9.2,29.8,9,29.5,9H16z M7.1,25.8H5.3c-0.3,0-0.5-0.2-0.5-0.5v-1.9C4.8,23.2,5,23,5.3,23h1.9  c0.3,0,0.5,0.2,0.5,0.5v1.9C7.6,25.6,7.4,25.8,7.1,25.8z M7.1,20.2H5.3c-0.3,0-0.5-0.2-0.5-0.5v-1.9c0-0.3,0.2-0.5,0.5-0.5h1.9  c0.3,0,0.5,0.2,0.5,0.5v1.9C7.6,20,7.4,20.2,7.1,20.2z M7.1,14.6H5.3c-0.3,0-0.5-0.2-0.5-0.5v-1.9c0-0.3,0.2-0.5,0.5-0.5h1.9  c0.3,0,0.5,0.2,0.5,0.5v1.9C7.6,14.4,7.4,14.6,7.1,14.6z M7.1,9H5.3C5,9,4.8,8.8,4.8,8.5V6.7c0-0.3,0.2-0.5,0.5-0.5h1.9  c0.3,0,0.5,0.2,0.5,0.5v1.9C7.6,8.8,7.4,9,7.1,9z M12.7,25.8h-1.9c-0.3,0-0.5-0.2-0.5-0.5v-1.9c0-0.3,0.2-0.5,0.5-0.5h1.9  c0.3,0,0.5,0.2,0.5,0.5v1.9C13.2,25.6,13,25.8,12.7,25.8z M12.7,20.2h-1.9c-0.3,0-0.5-0.2-0.5-0.5v-1.9c0-0.3,0.2-0.5,0.5-0.5h1.9  c0.3,0,0.5,0.2,0.5,0.5v1.9C13.2,20,13,20.2,12.7,20.2z M12.7,14.6h-1.9c-0.3,0-0.5-0.2-0.5-0.5v-1.9c0-0.3,0.2-0.5,0.5-0.5h1.9  c0.3,0,0.5,0.2,0.5,0.5v1.9C13.2,14.4,13,14.6,12.7,14.6z M12.7,9h-1.9c-0.3,0-0.5-0.2-0.5-0.5V6.7c0-0.3,0.2-0.5,0.5-0.5h1.9  c0.3,0,0.5,0.2,0.5,0.5v1.9C13.2,8.8,13,9,12.7,9z M27.2,25.8H16V23h2.3c0.3,0,0.5-0.2,0.5-0.5v-1.9c0-0.3-0.2-0.5-0.5-0.5H16v-2.8  h2.3c0.3,0,0.5-0.2,0.5-0.5v-1.9c0-0.3-0.2-0.5-0.5-0.5H16v-2.8h11.2V25.8z M23.9,14.6h-1.9c-0.3,0-0.5,0.2-0.5,0.5v1.9  c0,0.3,0.2,0.5,0.5,0.5h1.9c0.3,0,0.5-0.2,0.5-0.5v-1.9C24.4,14.8,24.2,14.6,23.9,14.6z M23.9,20.2h-1.9c-0.3,0-0.5,0.2-0.5,0.5v1.9  c0,0.3,0.2,0.5,0.5,0.5h1.9c0.3,0,0.5-0.2,0.5-0.5v-1.9C24.4,20.4,24.2,20.2,23.9,20.2z" id="domain_1_"/></svg>